<?xml version="1.0" encoding="UTF-8" standalone="no"?>
<svg
   viewBox="0 0 704.00001 512"
   version="1.1"
   id="svg22127"
   sodipodi:docname="book-inside-left.svg"
   width="704"
   height="512"
   inkscape:version="1.3.2 (091e20e, 2023-11-25, custom)"
   inkscape:export-filename="InsideCover3.png"
   inkscape:export-xdpi="300"
   inkscape:export-ydpi="300"
   xmlns:inkscape="http://www.inkscape.org/namespaces/inkscape"
   xmlns:sodipodi="http://sodipodi.sourceforge.net/DTD/sodipodi-0.dtd"
   xmlns="http://www.w3.org/2000/svg"
   xmlns:svg="http://www.w3.org/2000/svg">
  <defs
     id="defs22131" />
  <sodipodi:namedview
     id="namedview22129"
     pagecolor="#ffffff"
     bordercolor="#111111"
     borderopacity="1"
     inkscape:showpageshadow="0"
     inkscape:pageopacity="0"
     inkscape:pagecheckerboard="1"
     inkscape:deskcolor="#d1d1d1"
     showgrid="false"
     inkscape:zoom="0.6685671"
     inkscape:cx="299.14724"
     inkscape:cy="80.021886"
     inkscape:window-width="1920"
     inkscape:window-height="1027"
     inkscape:window-x="-8"
     inkscape:window-y="22"
     inkscape:window-maximized="1"
     inkscape:current-layer="svg22127" />
  <!--! Font Awesome Pro 6.3.0 by @fontawesome - https://fontawesome.com License - https://fontawesome.com/license (Commercial License) Copyright 2023 Fonticons, Inc. -->
  <path
     id="path2161-6"
     style="color:#000000;fill:#000000;stroke-width:1;-inkscape-stroke:none;paint-order:stroke fill markers"
     d="M 208,0 C 147.0078,0 94.429433,14.25071 60.367188,26.66992 23.520854,39.96036 0,76.16076 0,112.95896 v 317.8321 c 0,59.8499 56.949847,92.6546 107.47266,76.6035 l -0.1543,0.049 c 26.46715,-8.335 74.84649,-18.3965 100.68164,-18.3965 17.25807,0 61.31688,10.6183 85.14453,18.8438 l 0.0508,0.018 0.0527,0.018 c 19.82627,6.5858 40.84117,4.9222 58.99804,-3.0762 18.04267,7.8799 38.84257,9.6126 58.33594,3.1328 l 0.13672,-0.045 0.13672,-0.047 c 23.88445,-8.0588 67.88646,-18.8437 85.14453,-18.8437 25.83515,0 74.22549,10.0266 100.68164,18.3964 l 0.1543,0.049 0.15625,0.049 C 647.13371,523.05316 704,490.64216 704,430.79226 v -317.8321 c 0,-36.8274 -23.49583,-72.8235 -60.00977,-86.25583 l -0.16015,-0.0606 -0.16211,-0.0566 C 609.79193,14.33005 557.11269,0.0012 496,0.0012 434.5671,0.0012 387.12553,14.01354 352,34.94261 316.87446,14.01344 269.4331,0.0012 208,0.0012 Z m 0,32.00977 c 58.3999,0 103.40004,18.89469 123,33.63279 3.3,2.4564 5,6.4246 5,10.3926 v 356.5508 c 0,10.7702 -11.70041,18.2326 -22.40039,14.6426 -26.59996,-8.9751 -71.69966,-22.2012 -105.59961,-22.2012 -38.49993,0 -88.40045,11.4317 -119.900391,21.3516 C 76.799621,449.96896 64,442.03166 64,430.78906 V 80.94726 C 64,69.51586 70.799631,58.93546 82.099609,54.87306 110.29956,44.57516 157.50009,32.00977 208,32.00977 Z m 288,0 c 50.49991,0 97.70044,12.56619 125.90039,22.76949 C 633.20037,58.93616 640,69.51586 640,80.94726 v 349.8418 c 0,11.2426 -12.79963,19.0854 -24.09961,15.5899 -31.49995,-9.9199 -81.40046,-21.3516 -119.90039,-21.3516 -33.89995,0 -78.99966,13.2261 -105.59961,22.2012 C 379.60041,450.81856 368,443.35616 368,432.58596 V 76.03516 c 0,-3.968 1.60001,-7.9362 5,-10.3926 19.59997,-14.7381 64.6001,-33.63279 123,-33.63279 z M 335.52734,45.75386 c -0.1289,0.093 -0.23137,0.2032 -0.35937,0.2969 -0.198,0.1477 -0.428,0.2796 -0.625,0.4278 z m 33.67969,0.5372 0.24805,0.1875 c -0.0427,-0.033 -0.0937,-0.061 -0.13672,-0.094 -0.0393,-0.03 -0.0713,-0.064 -0.11133,-0.094 z" />
  <g
     id="g1"
     transform="matrix(-1,0,0,1,710.5458,0)">
    <path
       style="fill:none;stroke:#000000;stroke-width:20;stroke-linecap:round;stroke-linejoin:miter;stroke-dasharray:none;stroke-opacity:1"
       d="M 412.82319,109.18874 C 523.14937,94.804592 609.95658,122.6024 610.26036,122.65037"
       id="path1"
       sodipodi:nodetypes="cc" />
    <path
       style="fill:none;stroke:#000000;stroke-width:20;stroke-linecap:round;stroke-linejoin:miter;stroke-dasharray:none;stroke-opacity:1"
       d="m 412.74304,178.27862 c 110.32618,-14.38415 197.13339,13.41366 197.43717,13.46163"
       id="path1-2"
       sodipodi:nodetypes="cc" />
    <path
       style="fill:none;stroke:#000000;stroke-width:20;stroke-linecap:round;stroke-linejoin:miter;stroke-dasharray:none;stroke-opacity:1"
       d="m 412.93178,240.64644 c 110.32618,-14.38415 197.13339,13.41366 197.43717,13.46163"
       id="path1-2-0"
       sodipodi:nodetypes="cc" />
    <path
       style="fill:none;stroke:#000000;stroke-width:20;stroke-linecap:round;stroke-linejoin:miter;stroke-dasharray:none;stroke-opacity:1"
       d="m 414.47015,304.59528 c 110.32618,-14.38415 197.13339,13.41366 197.43717,13.46163"
       id="path1-2-0-9"
       sodipodi:nodetypes="cc" />
  </g>
</svg>
